HIERARCHY
ROOT Hips
{
	OFFSET 0.00000 0.00000 0.00000
	CHANNELS 6 Xposition Yposition Zposition Zrotation Yrotation Xrotation 
	JOINT LHipJoint
	{
		OFFSET 0 0 0
		CHANNELS 3 Zrotation Yrotation Xrotation
		JOINT LeftUpLeg
		{
			OFFSET 1.44361 -1.63093 0.70831
			CHANNELS 3 Zrotation Yrotation Xrotation
			JOINT LeftLeg
			{
				OFFSET 2.20103 -6.04728 0.00000
				CHANNELS 3 Zrotation Yrotation Xrotation
				JOINT LeftFoot
				{
					OFFSET 2.54154 -6.98283 0.00000
					CHANNELS 3 Zrotation Yrotation Xrotation
					JOINT LeftToeBase
					{
						OFFSET 0.05971 -0.16406 1.77582
						CHANNELS 3 Zrotation Yrotation Xrotation
						End Site
						{
							OFFSET 0.00000 -0.00000 0.90832
						}
					}
				}
			}
		}
	}
	JOINT RHipJoint
	{
		OFFSET 0 0 0
		CHANNELS 3 Zrotation Yrotation Xrotation
		JOINT RightUpLeg
		{
			OFFSET -1.65838 -1.63093 0.70830
			CHANNELS 3 Zrotation Yrotation Xrotation
			JOINT RightLeg
			{
				OFFSET -2.26926 -6.23475 0.00000
				CHANNELS 3 Zrotation Yrotation Xrotation
				JOINT RightFoot
				{
					OFFSET -2.34808 -6.45129 0.00000
					CHANNELS 3 Zrotation Yrotation Xrotation
					JOINT RightToeBase
					{
						OFFSET -0.18633 -0.51195 1.68539
						CHANNELS 3 Zrotation Yrotation Xrotation
						End Site
						{
							OFFSET -0.00000 -0.00000 0.88927
						}
					}
				}
			}
		}
	}
	JOINT LowerBack
	{
		OFFSET 0 0 0
		CHANNELS 3 Zrotation Yrotation Xrotation
		JOINT Spine
		{
			OFFSET -0.10393 2.01691 0.06920
			CHANNELS 3 Zrotation Yrotation Xrotation
			JOINT Spine1
			{
				OFFSET 0.04092 2.01302 -0.05283
				CHANNELS 3 Zrotation Yrotation Xrotation
				JOINT Neck
				{
					OFFSET 0 0 0
					CHANNELS 3 Zrotation Yrotation Xrotation
					JOINT Neck1
					{
						OFFSET -0.02870 1.58978 -0.03113
						CHANNELS 3 Zrotation Yrotation Xrotation
						JOINT Head
						{
							OFFSET 0.11532 1.54326 -0.29195
							CHANNELS 3 Zrotation Yrotation Xrotation
							End Site
							{
								OFFSET 0.04056 1.59999 -0.09535
							}
						}
					}
				}
				JOINT LeftShoulder
				{
					OFFSET 0 0 0
					CHANNELS 3 Zrotation Yrotation Xrotation
					JOINT LeftArm
					{
						OFFSET 3.30641 1.15764 0.01104
						CHANNELS 3 Zrotation Yrotation Xrotation
						JOINT LeftForeArm
						{
							OFFSET 4.63208 -0.00000 0.00000
							CHANNELS 3 Zrotation Yrotation Xrotation
							JOINT LeftHand
							{
								OFFSET 3.41924 -0.00000 -0.00000
								CHANNELS 3 Zrotation Yrotation Xrotation
								JOINT LeftFingerBase
								{
									OFFSET 0 0 0
									CHANNELS 3 Zrotation Yrotation Xrotation
									JOINT LeftHandIndex1
									{
										OFFSET 0.62537 -0.00000 -0.00000
										CHANNELS 3 Zrotation Yrotation Xrotation
										End Site
										{
											OFFSET 0.50419 -0.00000 -0.00000
										}
									}
								}
								JOINT LThumb
								{
									OFFSET 0 0 0
									CHANNELS 3 Zrotation Yrotation Xrotation
									End Site
									{
										OFFSET 0.51189 -0.00000 0.51189
									}
								}
							}
						}
					}
				}
				JOINT RightShoulder
				{
					OFFSET 0 0 0
					CHANNELS 3 Zrotation Yrotation Xrotation
					JOINT RightArm
					{
						OFFSET -3.78081 1.02180 -0.16609
						CHANNELS 3 Zrotation Yrotation Xrotation
						JOINT RightForeArm
						{
							OFFSET -4.40640 -0.00000 -0.00000
							CHANNELS 3 Zrotation Yrotation Xrotation
							JOINT RightHand
							{
								OFFSET -3.44675 -0.00000 0.00000
								CHANNELS 3 Zrotation Yrotation Xrotation
								JOINT RightFingerBase
								{
									OFFSET 0 0 0
									CHANNELS 3 Zrotation Yrotation Xrotation
									JOINT RightHandIndex1
									{
										OFFSET -0.51367 -0.00000 -0.00000
										CHANNELS 3 Zrotation Yrotation Xrotation
										End Site
										{
											OFFSET -0.41414 -0.00000 -0.00000
										}
									}
								}
								JOINT RThumb
								{
									OFFSET 0 0 0
									CHANNELS 3 Zrotation Yrotation Xrotation
									End Site
									{
										OFFSET -0.42046 -0.00000 0.42046
									}
								}
							}
						}
					}
				}
			}
		}
	}
}
MOTION
Frames: 15
Frame Time: .0083333
7.5714 21.8746 6.4768 179.0790 2.8909 -166.6780 0.0000 0.0000 0.0000 -17.7037 -17.0302 -34.3466 2.7599 10.2958 29.9399 1.3856 -8.6439 -21.0783 5.2138 -13.6206 -41.7385 0.0000 0.0000 0.0000 18.3812 6.6384 -21.7980 -9.4386 -17.0818 57.5949 0.1473 -8.3784 2.1751 -1.0397 6.4849 -18.1980 -10.0591 2.5303 2.5291 -1.4500 3.7048 4.2767 4.0892 1.7335 2.5461 -3.4219 0.0592 -7.8445 7.7218 -3.3852 25.9258 2.8039 -1.8059 9.6231 0.0000 -0.0000 0.0000 -85.7660 -4.9248 20.3081 11.1845 -18.5705 -1.8342 -0.0000 -0.0000 21.2734 26.7474 -19.5391 -9.5677 -7.1250 0.0000 -0.0000 -1.0136 8.3091 0.8567 0.0000 -0.0000 0.0000 89.9259 0.6546 10.1530 -13.8989 22.5900 -2.7892 0.0000 0.0000 13.1917 -14.3618 -36.5308 8.6659 7.1250 -0.0000 -0.0000 25.5310 -65.6732 -13.1264
7.5354 21.9396 6.2535 178.8870 3.0501 -167.0150 0.0000 0.0000 0.0000 -18.6260 -16.5579 -32.3025 2.5516 9.9311 28.7540 1.4373 -8.7702 -21.4722 5.2249 -13.6326 -41.7853 0.0000 0.0000 0.0000 17.7272 7.4714 -24.4726 -10.1816 -17.5107 60.0935 0.1688 -7.4247 -1.0732 -1.3900 7.4594 -21.0836 -10.2345 2.3573 2.7106 -1.4895 3.4629 4.2980 4.1421 1.6147 2.4972 -3.2399 0.2742 -8.0972 7.6842 -3.2087 26.3938 2.7812 -1.7245 9.8255 0.0000 0.0000 0.0000 -85.7601 -5.3004 20.9685 11.3011 -18.7482 -1.8715 -0.0000 -0.0000 21.6183 27.0910 -19.9798 -9.9142 -7.1250 0.0000 -0.0000 -0.8441 7.7678 0.7223 0.0000 0.0000 0.0000 89.9637 -0.3359 8.4096 -13.8130 22.4668 -2.7563 0.0000 0.0000 13.1992 -15.0600 -36.0938 9.0072 7.1250 -0.0000 -0.0000 24.2417 -65.4850 -12.3229
7.5011 22.0019 6.0308 178.6890 3.2615 -167.4340 0.0000 0.0000 0.0000 -19.5517 -16.0256 -30.2145 2.3598 9.5783 27.6218 1.5005 -8.8743 -21.9438 5.2667 -13.6780 -41.9627 0.0000 0.0000 0.0000 17.0383 8.3973 -27.0672 -10.7550 -17.8131 61.9834 0.1177 -6.2218 -3.7176 -1.7817 8.3958 -23.9230 -10.5563 2.0741 2.9442 -1.4097 3.0657 4.3673 4.4040 1.4089 2.4831 -3.2125 0.6027 -8.5066 7.5416 -2.8208 26.9907 2.7744 -1.5686 10.0927 -0.0000 0.0000 0.0000 -85.9255 -5.6039 21.2030 11.4720 -19.0081 -1.9269 -0.0000 -0.0000 22.0637 27.2374 -19.9479 -9.9605 -7.1250 0.0000 -0.0000 -0.7468 7.7759 0.6390 -0.0000 0.0000 0.0000 89.7327 -1.2295 7.3089 -13.7182 22.3303 -2.7201 0.0000 0.0000 12.7547 -16.3149 -35.7862 9.7127 7.1250 -0.0000 -0.0000 22.4822 -65.5641 -11.4265
7.4685 22.0620 5.8131 178.7160 3.3730 -167.7310 0.0000 0.0000 0.0000 -20.1296 -15.4765 -28.3643 2.1866 9.2444 26.5629 1.5688 -8.9835 -22.4428 5.3795 -13.7988 -42.4374 0.0000 0.0000 0.0000 16.5647 9.4369 -29.7177 -11.1251 -17.9958 63.1872 0.0317 -5.0582 -6.0465 -1.9810 8.8264 -25.2538 -10.6123 1.7834 3.0737 -1.2721 2.6656 4.4493 4.5855 1.2000 2.5508 -3.3626 0.7826 -8.5967 7.5120 -2.5533 27.0971 2.8203 -1.4694 10.1309 -0.0000 -0.0000 0.0000 -86.0556 -5.9752 21.5146 11.6576 -19.2891 -1.9877 -0.0000 -0.0000 22.5563 27.3800 -19.7986 -9.9498 -7.1250 0.0000 -0.0000 -0.6382 7.9128 0.5443 -0.0000 -0.0000 0.0000 89.5687 -2.0246 6.0242 -13.6040 22.1657 -2.6769 0.0000 0.0000 12.5710 -16.4863 -36.4672 9.9765 7.1250 -0.0000 -0.0000 23.0677 -66.2258 -12.0876
7.4368 22.1174 5.5979 178.7630 3.3782 -167.9330 0.0000 0.0000 0.0000 -20.6491 -14.9647 -26.6476 2.0197 8.9069 25.5047 1.6293 -9.1056 -22.8775 5.5180 -13.9444 -43.0152 0.0000 0.0000 0.0000 16.0592 10.3889 -32.3803 -11.2726 -18.0659 63.6638 -0.0829 -4.2522 -8.6075 -2.3837 9.6233 -27.7653 -10.4774 1.5744 3.0970 -1.2272 2.3889 4.5005 4.5642 1.0595 2.6362 -3.4922 0.8196 -8.4148 7.7248 -2.5561 27.0018 2.9152 -1.4754 10.0632 -0.0000 -0.0000 0.0000 -86.0604 -6.4669 22.1713 11.7629 -19.4481 -2.0227 -0.0000 -0.0000 22.9202 27.6227 -20.0251 -10.1591 -7.1250 0.0000 -0.0000 -0.5103 7.6206 0.4381 -0.0000 -0.0000 0.0000 89.6882 -2.9532 4.3523 -13.5373 22.0694 -2.6518 0.0000 0.0000 12.5480 -16.0802 -37.3878 9.9281 7.1250 -0.0000 -0.0000 24.6559 -66.9250 -13.3541
7.4070 22.1684 5.3822 178.4800 3.3363 -168.2450 0.0000 0.0000 0.0000 -21.6162 -14.3973 -24.7393 1.8401 8.5248 24.3197 1.6704 -9.2774 -23.1725 5.6786 -14.1094 -43.6776 0.0000 0.0000 0.0000 15.1702 11.0942 -34.8696 -11.2265 -18.0442 63.5151 -0.2134 -4.0541 -11.1803 -2.8074 10.3766 -30.2052 -10.6835 1.3482 3.2231 -1.2454 2.0814 4.5319 4.6629 0.9030 2.6448 -3.3159 0.9161 -8.3424 7.6208 -2.4741 27.1010 2.8555 -1.4461 10.0775 0.0000 -0.0000 0.0000 -86.0461 -6.7028 23.0369 12.0434 -19.8697 -2.1170 -0.0000 -0.0000 22.7580 27.4009 -19.9700 -10.0395 -7.1250 0.0000 -0.0000 -0.6451 7.7217 0.5526 0.0000 -0.0000 0.0000 89.8497 -4.0753 2.7396 -13.5211 22.0459 -2.6457 0.0000 0.0000 12.3346 -16.1606 -37.5062 10.0058 7.1250 -0.0000 -0.0000 24.7155 -67.0531 -13.4596
7.3806 22.2139 5.1727 178.1720 3.2918 -168.5490 0.0000 0.0000 0.0000 -22.5355 -13.8312 -22.9502 1.6866 8.1802 23.2627 1.7158 -9.4727 -23.4944 5.8258 -14.2574 -44.2785 0.0000 0.0000 0.0000 14.2162 11.8099 -37.2913 -11.0163 -17.9430 62.8345 -0.3154 -4.1979 -12.9980 -2.4582 9.7614 -28.2076 -10.9849 1.1032 3.4023 -1.2398 1.7378 4.5484 4.8389 0.7276 2.6143 -3.0530 1.0222 -8.3140 7.3673 -2.3316 27.1615 2.7341 -1.3899 10.0811 -0.0000 -0.0000 0.0000 -85.9746 -6.8074 24.0524 12.4421 -20.4643 -2.2545 -0.0000 -0.0000 22.2504 27.1367 -19.9047 -9.8982 -7.1250 0.0000 -0.0000 -0.8061 7.8413 0.6887 -0.0000 -0.0000 0.0000 90.0112 -5.1036 0.9830 -13.3660 21.8211 -2.5877 0.0000 0.0000 12.4441 -16.7508 -36.7093 10.1991 7.1250 -0.0000 -0.0000 23.0531 -66.5195 -12.2339
7.3578 22.2493 4.9664 177.9840 3.2636 -168.7750 0.0000 0.0000 0.0000 -23.2166 -13.2991 -21.3728 1.5583 7.8782 22.3448 1.7744 -9.6097 -23.8995 5.9505 -14.3802 -44.7826 0.0000 0.0000 0.0000 13.3578 12.6005 -39.6900 -10.6618 -17.7656 61.6784 -0.4056 -4.4559 -14.5002 -2.1243 9.1203 -26.1723 -11.1498 0.8663 3.5055 -1.2198 1.4086 4.5487 4.9561 0.5597 2.6102 -2.5110 -1.6427 -8.2337 6.3204 -1.2794 27.5486 2.6751 0.6430 10.1631 0.0000 0.0000 0.0000 -85.9216 -7.1062 25.1695 12.7557 -20.9283 -2.3653 -0.0000 -0.0000 21.6647 27.3840 -19.8045 -9.9542 -7.1250 0.0000 -0.0000 -0.6364 7.9055 0.5428 0.0000 0.0000 0.0000 90.1608 -5.9053 -1.1285 -12.9868 21.2678 -2.4485 0.0000 0.0000 13.3708 -16.7387 -36.1113 10.0512 7.1250 -0.0000 -0.0000 22.3676 -65.9783 -11.5780
7.3358 22.2798 4.7554 177.7570 3.1935 -169.0290 0.0000 0.0000 0.0000 -23.9651 -12.7693 -19.7046 1.4290 7.5589 21.3820 1.8307 -9.7984 -24.2851 6.0655 -14.4915 -45.2441 0.0000 0.0000 0.0000 12.4490 13.2257 -41.9011 -10.1698 -17.5042 60.0544 -0.5150 -4.5949 -16.0179 -2.1962 9.2633 -26.6225 -11.2345 0.7167 3.6042 -1.2876 1.1919 4.4807 4.9340 0.4583 2.5203 -2.1372 -1.6532 -8.0435 6.1962 -1.2826 27.7491 2.5731 0.6859 10.1969 0.0000 -0.0000 0.0000 -85.7655 -7.2297 26.6351 13.1706 -21.5367 -2.5156 -0.0000 -0.0000 21.2494 26.2106 -18.6430 -8.9433 -7.1250 0.0000 -0.0000 -1.2634 9.3756 1.0410 0.0000 -0.0000 0.0000 90.5367 -6.9545 -3.6116 -12.5983 20.6958 -2.3094 0.0000 0.0000 14.9306 -16.5951 -35.5663 9.8341 7.1250 -0.0000 -0.0000 21.9215 -65.4441 -11.0685
7.3156 22.3087 4.5428 177.6750 3.1391 -169.2460 0.0000 0.0000 0.0000 -24.5186 -12.1909 -18.0253 1.2939 7.2072 20.3308 1.8791 -10.0777 -24.6182 6.1916 -14.6115 -45.7459 0.0000 0.0000 0.0000 11.6962 13.8333 -43.8704 -9.5377 -17.1415 57.9317 -0.6250 -4.4185 -17.1936 -2.2134 9.2972 -26.7295 -11.4096 0.3246 3.6742 -1.0795 0.6713 4.6420 5.2602 0.1741 2.7409 -2.1451 -1.3567 -9.0232 5.8995 -0.8007 28.3997 2.5496 0.8858 10.6067 -0.0000 -0.0000 0.0000 -86.0969 -7.6631 26.8367 13.6722 -22.2641 -2.7027 -0.0000 -0.0000 21.4157 24.9648 -17.7727 -8.0881 -7.1250 0.0000 -0.0000 -1.9909 10.5168 1.5951 -0.0000 -0.0000 0.0000 90.2708 -7.3841 -5.4282 -12.0724 19.9132 -2.1269 0.0000 0.0000 16.9240 -17.0071 -34.5986 9.8527 7.1250 -0.0000 -0.0000 20.4367 -64.6732 -9.9255
7.3028 22.3323 4.3339 177.7900 3.0692 -169.3950 0.0000 0.0000 0.0000 -24.7212 -11.5975 -16.5368 1.1744 6.8785 19.3560 1.9144 -10.2751 -24.8589 6.2651 -14.6804 -46.0364 0.0000 0.0000 0.0000 11.1877 14.4816 -45.6492 -8.7906 -16.6711 55.3632 -0.6924 -4.2494 -17.8306 -2.2501 9.3687 -26.9557 -11.3586 0.0215 3.7026 -0.8804 0.2676 4.7581 5.4475 -0.0444 2.9185 -3.4702 -1.3398 -8.0799 7.0145 -0.8959 27.4222 3.1232 0.7769 10.0708 -0.0000 -0.0000 0.0000 -86.3068 -8.0108 27.2913 14.1925 -23.0093 -2.9029 -0.0000 -0.0000 21.2922 27.4375 -18.6827 -9.4423 -7.1250 0.0000 -0.0000 -0.4733 9.1234 0.3923 -0.0000 -0.0000 0.0000 90.2308 -7.9060 -7.6467 -11.5477 19.1229 -1.9516 0.0000 0.0000 18.9965 -17.0986 -34.4700 9.8763 7.1250 -0.0000 -0.0000 20.2040 -64.5797 -9.7642
7.2974 22.3495 4.1268 177.6210 2.9005 -169.6080 0.0000 0.0000 0.0000 -25.2149 -11.0549 -15.1132 1.0842 6.6179 18.5881 1.9281 -10.4207 -24.9552 6.2348 -14.6520 -45.9168 0.0000 0.0000 0.0000 10.4021 14.8645 -47.2326 -7.9868 -16.1095 52.5150 -0.7217 -4.1378 -18.0752 -2.2335 9.3364 -26.8535 -11.6679 -0.3506 3.8484 -0.7017 -0.2298 4.9288 5.8144 -0.3183 3.1195 -3.2165 -1.1873 -9.0861 6.4162 -0.5691 28.1940 2.9378 0.9035 10.5332 -0.0000 -0.0000 0.0000 -86.5592 -8.5620 27.8252 14.6173 -23.6103 -3.0710 -0.0000 -0.0000 20.9422 30.4448 -19.1932 -10.9362 -7.1250 0.0000 -0.0000 1.3966 7.9974 -1.1890 -0.0000 -0.0000 0.0000 90.0809 -8.2450 -10.1059 -10.9320 18.1839 -1.7546 0.0000 0.0000 21.3826 -16.5202 -35.4718 9.7658 7.1250 -0.0000 -0.0000 21.9033 -65.3372 -11.0051
7.2951 22.3578 3.9208 177.0420 2.6906 -169.8870 0.0000 0.0000 0.0000 -26.1915 -10.5211 -13.6763 1.0082 6.3890 17.9174 1.9351 -10.6861 -25.0162 6.2218 -14.6399 -45.8656 0.0000 0.0000 0.0000 9.1875 14.9748 -48.6680 -7.1942 -15.4932 49.6049 -0.7754 -3.8670 -18.4752 -1.9842 8.8331 -25.2746 -12.1885 -0.4505 4.0949 -0.8332 -0.3849 4.9122 5.9690 -0.3943 3.0087 -2.7767 -1.2609 -8.9227 6.1759 -0.6677 28.3045 2.7669 0.8886 10.5465 -0.0000 -0.0000 0.0000 -86.3802 -8.9872 29.1729 15.2610 -24.5084 -3.3335 -0.0000 -0.0000 18.9554 28.2703 -18.5633 -9.7150 -7.1250 0.0000 -0.0000 0.0788 9.1077 -0.0653 -0.0000 -0.0000 0.0000 90.6440 -8.9923 -14.1288 -10.2997 17.2071 -1.5625 0.0000 0.0000 24.3908 -16.1203 -36.0071 9.6430 7.1250 -0.0000 -0.0000 22.9511 -65.7078 -11.7518
7.2895 22.3655 3.7165 177.3930 2.5026 -169.7690 0.0000 0.0000 0.0000 -25.9436 -10.1122 -12.6258 0.9292 6.1407 17.1931 1.9569 -10.8083 -25.1645 6.2686 -14.6837 -46.0504 0.0000 0.0000 0.0000 8.9800 15.4129 -50.1207 -6.4036 -14.8084 46.5809 -0.7375 -3.5969 -17.9174 -1.6327 8.0549 -22.8810 -11.6050 -0.4161 3.9601 -0.7970 -0.3363 4.8410 5.6802 -0.3559 2.9796 -2.3005 -1.3641 -8.6000 6.1081 -0.8847 28.0802 2.6246 0.8285 10.4086 0.0000 0.0000 0.0000 -86.1343 -9.3013 30.4687 15.5831 -24.9522 -3.4682 -0.0000 -0.0000 19.0018 28.7632 -19.4478 -10.3572 -7.1250 0.0000 -0.0000 0.2888 8.0408 -0.2455 0.0000 0.0000 0.0000 91.4314 -9.6102 -19.0364 -9.6385 16.1722 -1.3726 0.0000 0.0000 27.7678 -15.9491 -36.0868 9.5550 7.1250 -0.0000 -0.0000 23.2356 -65.7308 -11.9167
7.2854 22.3656 3.5061 177.4580 2.0946 -169.8000 0.0000 0.0000 0.0000 -26.0993 -9.7598 -11.3805 0.8567 5.9025 16.5017 1.9542 -11.1371 -25.1706 6.2922 -14.7057 -46.1435 0.0000 0.0000 0.0000 8.6204 15.3504 -51.2423 -5.6120 -14.0415 43.4039 -0.6961 -3.1526 -17.2143 -1.6049 7.9895 -22.6821 -11.3966 -0.5943 3.9014 -0.6867 -0.5620 4.9077 5.6814 -0.4756 3.1202 -1.6819 -1.4058 -9.0564 5.4197 -0.8494 28.6471 2.2963 0.8559 10.7052 0.0000 0.0000 0.0000 -86.1456 -9.6588 31.1594 15.9396 -25.4387 -3.6200 -0.0000 -0.0000 19.2921 29.9116 -20.5503 -11.4171 -7.1250 0.0000 -0.0000 0.8732 6.5937 -0.7672 0.0000 0.0000 0.0000 91.8097 -10.0483 -23.7462 -8.9861 15.1382 -1.1965 0.0000 0.0000 31.3407 -15.8103 -36.3264 9.5223 7.1250 -0.0000 -0.0000 23.6690 -65.9054 -12.2448
